<?xml version="1.0" encoding="UTF-8"?>
<svg width="2em" height="1em" version="1.1" viewBox="0 0 24 12" xml:space="preserve" xmlns="http://www.w3.org/2000/svg" xmlns:xlink="http://www.w3.org/1999/xlink"><defs><linearGradient id="linearGradient2050"><stop stop-color="#f0bf59" offset="0"/><stop stop-color="#f9d986" offset="1"/></linearGradient><linearGradient id="linearGradient2052" x1="123.18" x2="123.18" y1="57.561" y2="121.11" gradientTransform="matrix(-.13674 0 0 -.13372 149.45 99.542)" gradientUnits="userSpaceOnUse" xlink:href="#linearGradient2050"/><linearGradient id="linearGradient4156" x1="123.18" x2="123.18" y1="57.561" y2="112.68" gradientTransform="matrix(.13674 0 0 .13455 -160.15 -100.17)" gradientUnits="userSpaceOnUse" xlink:href="#linearGradient2050"/></defs><g stroke="#000" stroke-linecap="round"><g transform="translate(-114.55 -80.78)" stroke-linejoin="round"><path d="m127.37 82.035c-0.21446 0-0.3871 0.16882-0.3871 0.37853v9.0216c0 0.20971 0.17264 0.3786 0.3871 0.3786h9.6356c0.21445 0 0.38709-0.16889 0.38709-0.3786v-8.0481c0-0.20971-0.17264-0.37853-0.38709-0.37853h-6.1446c-0.58344 0-0.6643-0.97347-1.0857-0.97347z" fill="url(#linearGradient2052)" stop-color="#000000" stroke-width=".5" style="paint-order:stroke markers fill"/><rect transform="matrix(-1 0 .11148 -.99377 0 0)" x="-147.76" y="-92.391" width="10.515" height="7.52" ry=".37342" fill="url(#linearGradient4156)" stop-color="#000000" stroke-width=".50157" style="paint-order:stroke markers fill"/></g><g fill="none" stroke-width=".5"><rect x="3.25" y="3.25" width="5.5" height="5.5" ry=".91042" stop-color="#000000" stroke-linejoin="round" style="paint-order:stroke fill markers"/><path d="m4.2729 6h3.4541" stroke-width=".5"/><path d="m6 4.2729v3.4541" stroke-width=".5"/></g></g></svg>
