<?xml version="1.0" encoding="UTF-8"?>
<svg width="2em" height="1em" version="1.1" viewBox="0 0 24 12" xml:space="preserve" xmlns="http://www.w3.org/2000/svg" xmlns:xlink="http://www.w3.org/1999/xlink"><defs><linearGradient id="linearGradient2050"><stop stop-color="#f0bf59" offset="0"/><stop stop-color="#f9d986" offset="1"/></linearGradient><linearGradient id="linearGradient2052" x1="123.18" x2="123.18" y1="57.561" y2="121.11" gradientTransform="matrix(-.13674 0 0 -.13372 22.718 19.291)" gradientUnits="userSpaceOnUse" xlink:href="#linearGradient2050"/><linearGradient id="linearGradient4156" x1="123.18" x2="123.18" y1="57.561" y2="112.68" gradientTransform="matrix(.13674 0 0 .11643 -24.996 -18.442)" gradientUnits="userSpaceOnUse" xlink:href="#linearGradient2050"/></defs><g stroke="#000" stroke-linecap="round"><g transform="translate(11.999)"><path d="m0.63773 1.7842c-0.21446 0-0.3871 0.16882-0.3871 0.37853v9.0216c0 0.20971 0.17264 0.3786 0.3871 0.3786h9.6356c0.21445 0 0.38709-0.16889 0.38709-0.3786v-8.0481c0-0.20971-0.17264-0.37853-0.38709-0.37853h-6.1446c-0.58344 0-0.6643-0.97347-1.0857-0.97347z" fill="url(#linearGradient2052)" stop-color="#000000" stroke-linejoin="round" stroke-width=".5" style="paint-order:stroke markers fill"/><path d="m7.654 0.35778h-5.277v9.4662h6.4001v-8.3331z" fill="#fff" stop-color="#000000" stroke-width=".5" style="paint-order:stroke fill markers"/><path d="m7.654 0.35778v1.1328h1.1232" fill="none" stop-color="#000000" stroke-width=".25" style="paint-order:stroke markers fill"/><rect transform="matrix(-1 0 .15746 -.98753 0 0)" x="-12.606" y="-11.71" width="10.515" height="6.5073" ry=".32313" fill="url(#linearGradient4156)" stop-color="#000000" stroke-linejoin="round" stroke-width=".50315" style="paint-order:stroke markers fill"/></g><rect x="3.25" y="3.25" width="5.5" height="5.5" ry=".91042" fill="none" stop-color="#000000" stroke-linejoin="round" stroke-width=".5" style="paint-order:stroke fill markers"/><path d="m4.2835 6h3.433" fill="none" stroke-width=".5"/></g></svg>
